<?xml version="1.0" encoding="UTF-8" standalone="no"?>
<!-- Created with Inkscape (http://www.inkscape.org/) -->

<svg
   xmlns:dc="http://purl.org/dc/elements/1.1/"
   xmlns:cc="http://creativecommons.org/ns#"
   xmlns:rdf="http://www.w3.org/1999/02/22-rdf-syntax-ns#"
   xmlns:svg="http://www.w3.org/2000/svg"
   xmlns="http://www.w3.org/2000/svg"
   xmlns:sodipodi="http://sodipodi.sourceforge.net/DTD/sodipodi-0.dtd"
   xmlns:inkscape="http://www.inkscape.org/namespaces/inkscape"
   width="36"
   height="36"
   viewBox="0 0 36 36"
   id="svg2"
   version="1.1"
   inkscape:version="0.91 r13725"
   sodipodi:docname="Knob.svg">
  <defs
     id="defs4" />
  <sodipodi:namedview
     id="base"
     pagecolor="#ffffff"
     bordercolor="#666666"
     borderopacity="1.0"
     inkscape:pageopacity="0.0"
     inkscape:pageshadow="2"
     inkscape:zoom="3.4296751"
     inkscape:cx="4.4898642"
     inkscape:cy="-12.088782"
     inkscape:document-units="px"
     inkscape:current-layer="layer1"
     showgrid="false"
     units="px"
     inkscape:window-width="1920"
     inkscape:window-height="1030"
     inkscape:window-x="0"
     inkscape:window-y="0"
     inkscape:window-maximized="1" />
  <metadata
     id="metadata7">
    <rdf:RDF>
      <cc:Work
         rdf:about="">
        <dc:format>image/svg+xml</dc:format>
        <dc:type
           rdf:resource="http://purl.org/dc/dcmitype/StillImage" />
        <dc:title />
      </cc:Work>
    </rdf:RDF>
  </metadata>
  <g
     inkscape:label="Calque 1"
     inkscape:groupmode="layer"
     id="layer1"
     transform="translate(0,-1016.3622)">
    <path
       transform="matrix(1.0784966,0.47302915,-0.46586786,1.062169,425.97033,-83.79648)"
       style="opacity:1;fill:#cccccc;fill-opacity:1;stroke:#000000;stroke-width:0.42781717;stroke-miterlimit:5.19999981;stroke-dasharray:none;stroke-opacity:1"
       d="m 74.288961,1035.4111 -8.486968,3.8222 -9.112694,-1.8964 -6.257682,-6.8905 -1.012448,-9.2527 4.619507,-8.0806 8.486967,-3.8222 9.112695,1.8964 6.257682,6.8904 1.012448,9.2527 z"
       id="path4200" />
    <path
       style="opacity:1;fill:#ffffff;fill-opacity:1;stroke:none;stroke-width:0.5;stroke-miterlimit:5.19999981;stroke-dasharray:none;stroke-opacity:1"
       d="m 33.000004,1034.4943 a 15,15 0 0 1 -15,15 15,15 0 0 1 -15.0000002,-15 15,15 0 0 1 15.0000002,-15 15,15 0 0 1 15,15 z"
       id="path4202" />
    <path
       style="opacity:1;fill:#005c94;fill-opacity:1;stroke:none;stroke-width:0.5;stroke-miterlimit:5.19999981;stroke-dasharray:none;stroke-opacity:1"
       d="m 31.500004,1034.4943 a 13.5,13.5 0 0 1 -13.5,13.5 13.5,13.5 0 0 1 -13.5000002,-13.5 13.5,13.5 0 0 1 13.5000002,-13.5 13.5,13.5 0 0 1 13.5,13.5 z"
       id="path4204" />
    <path
       style="opacity:1;fill:#ffffff;fill-opacity:1;stroke:#000000;stroke-width:0.5;stroke-miterlimit:4;stroke-dasharray:none;stroke-opacity:1"
       d="m 18.000004,1016.4279 c 1.108,0 2,0.8534 2,1.9134 l 0,14.8208 c 0,1.06 -0.892,1.9134 -2,1.9134 -1.108,0 -2,-0.8534 -2,-1.9134 l 0,-14.8208 c 0,-1.06 0.892,-1.9134 2,-1.9134 z"
       id="rect4134" />
  </g>
</svg>
