<?xml version="1.0" encoding="UTF-8" standalone="no"?>
<!-- Created with Inkscape (http://www.inkscape.org/) -->

<svg
   xmlns:dc="http://purl.org/dc/elements/1.1/"
   xmlns:cc="http://creativecommons.org/ns#"
   xmlns:rdf="http://www.w3.org/1999/02/22-rdf-syntax-ns#"
   xmlns:svg="http://www.w3.org/2000/svg"
   xmlns="http://www.w3.org/2000/svg"
   xmlns:sodipodi="http://sodipodi.sourceforge.net/DTD/sodipodi-0.dtd"
   xmlns:inkscape="http://www.inkscape.org/namespaces/inkscape"
   width="90"
   height="380"
   viewBox="0 0 23.8125 100.54167"
   version="1.1"
   id="svg8"
   inkscape:version="0.91 r13725"
   sodipodi:docname="Reverb.svg"
   inkscape:export-filename="/home/moi/Programmes/Rack/plugins/VCV_Csound/res/Reverb.png"
   inkscape:export-xdpi="96"
   inkscape:export-ydpi="96">
  <defs
     id="defs2">
    <inkscape:perspective
       sodipodi:type="inkscape:persp3d"
       inkscape:vp_x="0 : 50.270835 : 1"
       inkscape:vp_y="0 : 1000 : 0"
       inkscape:vp_z="31.75 : 50.270835 : 1"
       inkscape:persp3d-origin="15.875 : 33.51389 : 1"
       id="perspective4742" />
  </defs>
  <sodipodi:namedview
     id="base"
     pagecolor="#ffffff"
     bordercolor="#666666"
     borderopacity="1.0"
     inkscape:pageopacity="0.0"
     inkscape:pageshadow="2"
     inkscape:zoom="4.64"
     inkscape:cx="-35.975628"
     inkscape:cy="317.08109"
     inkscape:document-units="px"
     inkscape:current-layer="g4331"
     showgrid="true"
     units="px"
     fit-margin-top="0"
     fit-margin-left="0"
     fit-margin-right="0"
     fit-margin-bottom="0"
     showguides="false"
     inkscape:snap-to-guides="false"
     objecttolerance="20"
     inkscape:window-width="1920"
     inkscape:window-height="1030"
     inkscape:window-x="0"
     inkscape:window-y="0"
     inkscape:window-maximized="1"
     gridtolerance="17"
     inkscape:snap-perpendicular="false"
     inkscape:pagecheckerboard="true"
     inkscape:snap-page="false"
     inkscape:snap-text-baseline="true"
     showborder="false">
    <inkscape:grid
       type="xygrid"
       id="grid43"
       originx="-7.3436628e-018"
       originy="100.54167"
       spacingx="0.52916668"
       spacingy="0.52916668"
       dotted="false"
       empspacing="20" />
  </sodipodi:namedview>
  <metadata
     id="metadata5">
    <rdf:RDF>
      <cc:Work
         rdf:about="">
        <dc:format>image/svg+xml</dc:format>
        <dc:type
           rdf:resource="http://purl.org/dc/dcmitype/StillImage" />
        <dc:title />
      </cc:Work>
    </rdf:RDF>
  </metadata>
  <g
     inkscape:groupmode="layer"
     id="layer2"
     inkscape:label="Layer 2"
     style="display:inline">
    <g
       aria-label="M"
       style="font-style:normal;font-variant:normal;font-weight:bold;font-stretch:normal;font-size:19.75555611px;line-height:1.25;font-family:Arial;-inkscape-font-specification:'Arial, Bold';font-variant-ligatures:normal;font-variant-caps:normal;font-variant-numeric:normal;font-feature-settings:normal;text-align:start;letter-spacing:0px;word-spacing:0px;writing-mode:lr-tb;text-anchor:start;fill:#000000;fill-opacity:1;stroke:none;stroke-width:0.26458335"
       id="text4720" />
    <g
       style="font-style:normal;font-variant:normal;font-weight:normal;font-stretch:normal;font-size:2.82222247px;line-height:1.25;font-family:Arial;-inkscape-font-specification:'Arial, Normal';font-variant-ligatures:normal;font-variant-caps:normal;font-variant-numeric:normal;font-feature-settings:normal;text-align:start;letter-spacing:0px;word-spacing:0px;writing-mode:lr-tb;text-anchor:start;fill:#000000;fill-opacity:1;stroke:none;stroke-width:0.26458335"
       id="text989" />
    <rect
       style="fill:#ffffff;fill-opacity:1;stroke:none;stroke-width:0.26458335;stroke-opacity:1"
       id="rect842"
       width="6.2674704"
       height="0"
       x="-7.9512687"
       y="55.6404"
       ry="0" />
    <flowRoot
       xml:space="preserve"
       id="flowRoot4369"
       style="fill:black;stroke:none;stroke-opacity:1;stroke-width:1px;stroke-linejoin:miter;stroke-linecap:butt;fill-opacity:1;font-family:sans-serif;font-style:normal;font-weight:bold;font-size:10px;line-height:125%;letter-spacing:0px;word-spacing:0px;-inkscape-font-specification:'sans-serif Bold';font-stretch:normal;font-variant:normal;"><flowRegion
         id="flowRegion4371"><rect
           id="rect4373"
           width="46"
           height="22"
           x="-84"
           y="124"
           style="-inkscape-font-specification:'sans-serif Bold';font-family:sans-serif;font-weight:bold;font-style:normal;font-stretch:normal;font-variant:normal;" /></flowRegion><flowPara
         id="flowPara4375" /></flowRoot>    <g
       aria-label="M"
       style="font-style:normal;font-variant:normal;font-weight:bold;font-stretch:normal;font-size:19.75555611px;line-height:1.25;font-family:Arial;-inkscape-font-specification:'Arial, Bold';text-align:start;letter-spacing:0px;word-spacing:0px;writing-mode:lr-tb;text-anchor:start;fill:#000000;fill-opacity:1;stroke:none;stroke-width:0.26458335"
       id="text4720-9"
       transform="translate(-36.702171,-16.305197)" />
    <g
       style="font-style:normal;font-variant:normal;font-weight:normal;font-stretch:normal;font-size:2.82222247px;line-height:1.25;font-family:Arial;-inkscape-font-specification:'Arial, Normal';text-align:start;letter-spacing:0px;word-spacing:0px;writing-mode:lr-tb;text-anchor:start;fill:#000000;fill-opacity:1;stroke:none;stroke-width:0.26458335"
       id="text989-1"
       transform="translate(-36.702171,-16.305197)" />
    <rect
       style="fill:#ffffff;fill-opacity:1;stroke:none;stroke-width:0.26458335;stroke-opacity:1"
       id="rect842-2"
       width="6.2674704"
       height="0"
       x="-44.653439"
       y="39.335201"
       ry="0" />
    <flowRoot
       xml:space="preserve"
       id="flowRoot4369-7"
       style="font-style:normal;font-variant:normal;font-weight:bold;font-stretch:normal;font-size:10px;line-height:125%;font-family:sans-serif;-inkscape-font-specification:'sans-serif Bold';letter-spacing:0px;word-spacing:0px;fill:#000000;fill-opacity:1;stroke:none;stroke-width:1px;stroke-linecap:butt;stroke-linejoin:miter;stroke-opacity:1"
       transform="translate(-36.702171,-16.305197)"><flowRegion
         id="flowRegion4371-0"><rect
           id="rect4373-9"
           width="46"
           height="22"
           x="-84"
           y="124"
           style="font-style:normal;font-variant:normal;font-weight:bold;font-stretch:normal;font-family:sans-serif;-inkscape-font-specification:'sans-serif Bold'" /></flowRegion><flowPara
         id="flowPara4375-3" /></flowRoot>    <g
       id="g4331"
       transform="translate(-0.1577714,0.01078182)">
      <path
         style="fill:#005c94;fill-opacity:1;stroke:#bdcdd4;stroke-width:0.36688089;stroke-miterlimit:4;stroke-dasharray:none;stroke-opacity:1"
         d="m 0.63658878,0.17265852 22.85486522,0 c 0.16364,0 0.295378,0.13331177 0.295378,0.29890531 l 0,99.57697617 c 0,0.1656 -0.131738,0.29891 -0.295378,0.29891 l -22.85486522,0 c -0.16363938,0 -0.29537794,-0.13331 -0.29537794,-0.29891 l 0,-99.57697617 c 0,-0.16559354 0.13173856,-0.29890531 0.29537794,-0.29890531 z"
         id="rect4689" />
      <path
         style="fill:#bdcdd4;fill-opacity:1;stroke-width:0.80068338"
         d="m 3.2707645,42.85172 17.5865135,0 c 0.698545,0 1.260911,0.550685 1.260911,1.234723 l 0,12.347222 c 0,0.684036 -0.562366,1.234722 -1.260911,1.234722 l -17.5865135,0 c -0.6985445,0 -1.2609108,-0.550686 -1.2609108,-1.234722 l 0,-12.347222 c 0,-0.684038 0.5623663,-1.234723 1.2609108,-1.234723 z"
         id="rect26-7-3-4-6-26-2-8-9"
         inkscape:connector-curvature="0" />
      <path
         style="fill:#bdcdd4;fill-opacity:1;stroke-width:0.8006838"
         d="m 2.8310844,58.72672 18.4658736,0 c 0.454962,0 0.821231,0.550687 0.821231,1.234723 l 0,12.347221 c 0,0.684038 -0.366269,1.234723 -0.821231,1.234723 l -18.4658736,0 c -0.4549618,0 -0.8212306,-0.550685 -0.8212306,-1.234723 l 0,-12.347221 c 0,-0.684036 0.3662688,-1.234723 0.8212306,-1.234723 z"
         id="rect26-7-3-4-6-26-2-8-4"
         inkscape:connector-curvature="0" />
      <path
         style="fill:#3c3c3c;fill-opacity:1;stroke:none;stroke-width:0.40818104;stroke-opacity:1"
         d="m 3.25718,77.776721 5.972015,0 c 0.691019,0 1.247326,0.584096 1.247326,1.309633 l 0,8.493234 c 0,0.725537 -0.556307,1.309633 -1.247326,1.309633 l -5.972015,0 c -0.6910187,0 -1.2473261,-0.584096 -1.2473261,-1.309633 l 0,-8.493234 c 0,-0.725537 0.5563074,-1.309633 1.2473261,-1.309633 z"
         id="rect4778"
         inkscape:connector-curvature="0" />
      <path
         style="fill:#3c3c3c;fill-opacity:1;stroke:none;stroke-width:0.40818104;stroke-opacity:1"
         d="m 14.898848,77.776721 5.972015,0 c 0.691019,0 1.247326,0.584096 1.247326,1.309633 l 0,8.493234 c 0,0.725537 -0.556307,1.309633 -1.247326,1.309633 l -5.972015,0 c -0.691019,0 -1.247326,-0.584096 -1.247326,-1.309633 l 0,-8.493234 c 0,-0.725537 0.556307,-1.309633 1.247326,-1.309633 z"
         id="rect4778-3"
         inkscape:connector-curvature="0" />
      <path
         style="fill:#bdcdd4;fill-opacity:1;stroke-width:0.80069131"
         d="m 3.2707901,26.976719 17.5864629,0 c 0.698559,0 1.260936,0.550685 1.260936,1.234722 l 0,12.347223 c 0,0.684036 -0.562377,1.234722 -1.260936,1.234722 l -17.5864629,0 c -0.6985588,0 -1.2609364,-0.550686 -1.2609364,-1.234722 l 0,-12.347223 c 0,-0.684037 0.5623776,-1.234722 1.2609364,-1.234722 z"
         id="rect26-7-3-4-6-26-2-8-9-7"
         inkscape:connector-curvature="0" />
      <g
         transform="matrix(0.98459303,0,0,0.99635099,2.446819,-13.791678)"
         id="text3401"
         style="font-style:normal;font-variant:normal;font-weight:bold;font-stretch:normal;font-size:2.64583349px;line-height:125%;font-family:sans-serif;-inkscape-font-specification:'sans-serif Bold';letter-spacing:0px;word-spacing:0px;fill:#000000;fill-opacity:1;stroke:none;stroke-width:1px;stroke-linecap:butt;stroke-linejoin:miter;stroke-opacity:1"
         inkscape:export-xdpi="96"
         inkscape:export-ydpi="96" />
      <path
         style="display:inline;fill:#3c3c3c;fill-opacity:1;stroke:none;stroke-width:0.40818104;stroke-opacity:1"
         d="m 3.25718,13.747553 5.972015,0 c 0.691019,0 1.247326,0.584096 1.247326,1.309633 l 0,8.493234 c 0,0.725537 -0.556307,1.309633 -1.247326,1.309633 l -5.972015,0 c -0.6910187,0 -1.2473261,-0.584096 -1.2473261,-1.309633 l 0,-8.493234 c 0,-0.725537 0.5563074,-1.309633 1.2473261,-1.309633 z"
         id="rect4778-9"
         inkscape:connector-curvature="0" />
      <g
         id="text955-1"
         style="font-style:normal;font-variant:normal;font-weight:normal;font-stretch:normal;font-size:2.82222223px;line-height:1.25;font-family:Arial;-inkscape-font-specification:'Arial, Normal';text-align:start;letter-spacing:0px;word-spacing:0px;writing-mode:lr-tb;text-anchor:start;display:inline;fill:#ffffff;fill-opacity:1;stroke:none;stroke-width:0.26458335"
         aria-label="Left"
         transform="matrix(0.98459303,0,0,0.99635099,0.44690847,-67.705644)"
         inkscape:export-xdpi="96"
         inkscape:export-ydpi="96">
        <path
           id="path918-2"
           d="m 3.6462895,92.074982 0,-2.020204 0.2673394,0 0,1.781803 0.9949436,0 0,0.238401 z"
           inkscape:connector-curvature="0" />
        <path
           id="path920-7"
           d="m 6.1984162,91.603693 0.2563151,0.03169 q -0.060634,0.22462 -0.2246202,0.348643 -0.1639866,0.124024 -0.4189236,0.124024 -0.3210829,0 -0.5098742,-0.19706 -0.1874132,-0.198437 -0.1874132,-0.555349 0,-0.369314 0.1901693,-0.573264 0.1901693,-0.20395 0.4933377,-0.20395 0.2935221,0 0.4795573,0.199816 0.1860351,0.199815 0.1860351,0.562239 0,0.02205 -0.00138,0.06615 l -1.0914042,0 q 0.01378,0.241157 0.1364257,0.369314 0.1226454,0.128158 0.3059245,0.128158 0.1364258,0 0.2328885,-0.07166 0.096463,-0.07166 0.1529622,-0.228754 z m -0.8144206,-0.401009 0.8171767,0 Q 6.1846363,91.018026 6.1074653,90.925698 5.988954,90.782382 5.8001628,90.782382 q -0.1708768,0 -0.28801,0.114377 -0.1157552,0.114377 -0.1281576,0.305925 z"
           inkscape:connector-curvature="0" />
        <path
           id="path922-0"
           d="m 6.8268016,92.074982 0,-1.270552 -0.2191081,0 0,-0.192925 0.2191081,0 0,-0.155718 q 0,-0.14745 0.026183,-0.219108 0.035829,-0.09646 0.1254015,-0.155719 0.09095,-0.06063 0.253559,-0.06063 0.1047309,0 0.2315104,0.0248 l -0.037207,0.216352 q -0.07717,-0.01378 -0.1460721,-0.01378 -0.1129991,0 -0.1598524,0.04823 -0.046853,0.04823 -0.046853,0.180523 l 0,0.135048 0.2852533,0 0,0.192927 -0.2852539,0 0,1.270552 z"
           inkscape:connector-curvature="0" />
        <path
           id="path924-9"
           d="m 8.0918405,91.853118 0.035829,0.219108 q -0.1047309,0.02205 -0.1874132,0.02205 -0.1350477,0 -0.2094618,-0.04272 -0.074414,-0.04272 -0.1047309,-0.111621 -0.030317,-0.07028 -0.030317,-0.293522 l 0,-0.841983 -0.1819009,0 0,-0.192925 0.1819011,0 0,-0.362424 0.2466688,-0.148828 0,0.511252 0.2494249,0 0,0.192925 -0.2494249,0 0,0.855762 q 0,0.106109 0.012402,0.136426 0.01378,0.03032 0.042719,0.04823 0.030317,0.01792 0.085438,0.01792 0.041341,0 0.108865,-0.0096 z"
           inkscape:connector-curvature="0" />
      </g>
      <path
         style="display:inline;fill:#3c3c3c;fill-opacity:1;stroke:none;stroke-width:0.40818104;stroke-opacity:1"
         d="m 14.898849,13.747553 5.972014,0 c 0.691019,0 1.247326,0.584096 1.247326,1.309632 l 0,8.493235 c 0,0.725537 -0.556307,1.309633 -1.247326,1.309633 l -5.972014,0 c -0.69102,0 -1.247327,-0.584096 -1.247327,-1.309633 l 0,-8.493235 c 0,-0.725536 0.556307,-1.309632 1.247327,-1.309632 z"
         id="rect4778-3-3"
         inkscape:connector-curvature="0" />
      <path
         inkscape:connector-curvature="0"
         id="rect3417"
         d="m 6.6978804,91.829017 10.8611666,0 c 0.310836,0 0.561076,0.253228 0.561076,0.567776 l 0,2.51009 c 0,0.314548 -0.25024,0.567776 -0.561076,0.567776 l -10.8611666,0 c -0.310836,0 -0.561076,-0.253228 -0.561076,-0.567776 l 0,-2.51009 c 0,-0.314548 0.25024,-0.567776 0.561076,-0.567776 z"
         style="opacity:1;fill:#bdcdd4;fill-opacity:1"
         inkscape:export-xdpi="96"
         inkscape:export-ydpi="96" />
      <g
         transform="matrix(0.98459303,0,0,0.99635099,2.4587334,-3.0010155)"
         id="g4231"
         inkscape:export-xdpi="96"
         inkscape:export-ydpi="96">
        <path
           inkscape:connector-curvature="0"
           id="path4229"
           d="m 7.1815358,97.006836 a 1.5875002,1.5875001 0 0 1 -1.5875002,1.5875 1.5875002,1.5875001 0 0 1 -1.5875002,-1.5875 1.5875002,1.5875001 0 0 1 1.5875002,-1.5875 1.5875002,1.5875001 0 0 1 1.5875002,1.5875 z"
           style="opacity:1;fill:#000000;fill-opacity:1" />
        <g
           id="text4219"
           style="font-style:normal;font-variant:normal;font-weight:bold;font-stretch:normal;font-size:2.64583349px;line-height:125%;font-family:'Bitstream Charter';-inkscape-font-specification:'Bitstream Charter Bold';letter-spacing:0px;word-spacing:0px;fill:#ffffff;fill-opacity:1;stroke:none;stroke-width:1px;stroke-linecap:butt;stroke-linejoin:miter;stroke-opacity:1">
          <path
             inkscape:connector-curvature="0"
             id="path4255"
             d="m 5.4609994,97.776773 0,-0.187854 c -0.1296459,0.07937 -0.254,0.119063 -0.3677709,0.119063 -0.2460625,0 -0.4074583,-0.187854 -0.4074583,-0.505354 0,-0.301626 0.1613958,-0.492126 0.3466041,-0.492126 0.018521,0 0.039688,0.0026 0.066146,0.0079 l 0,0.280458 c 0.047625,0.0344 0.097896,0.05027 0.1561042,0.05027 0.1137708,0 0.1905,-0.07673 0.1905,-0.179917 0,-0.161395 -0.1640417,-0.288395 -0.4365626,-0.288395 -0.396875,0 -0.682625,0.283104 -0.682625,0.685271 0,0.383645 0.2513542,0.650875 0.635,0.650875 0.1693334,0 0.3307292,-0.04762 0.5000626,-0.14023 z" />
          <path
             inkscape:connector-curvature="0"
             id="path4257"
             d="m 5.6503418,97.837628 c 0.1640417,0.05821 0.3413126,0.08731 0.5106459,0.08731 0.4339167,0 0.7011459,-0.227542 0.7011459,-0.542396 0,-0.156104 -0.084667,-0.298979 -0.238125,-0.396875 -0.1561042,-0.100542 -0.2963334,-0.140229 -0.3783542,-0.1905 -0.1402292,-0.08467 -0.2143125,-0.164042 -0.2143125,-0.28575 0,-0.145521 0.1190625,-0.251354 0.3122083,-0.251354 0.084667,0 0.1455209,0.01323 0.1931459,0.03704 l 0.037042,0.03704 0.044979,0.275167 0.1905,0 0,-0.428625 c -0.1666875,-0.05821 -0.333375,-0.08996 -0.4974167,-0.08996 -0.3783542,0 -0.6244167,0.227541 -0.6244167,0.521229 0,0.129646 0.0635,0.259291 0.1852084,0.362479 0.1164166,0.0979 0.2407708,0.142875 0.3466041,0.195792 0.1878542,0.09525 0.2831042,0.1905 0.2831042,0.333375 0,0.145521 -0.127,0.251354 -0.3413125,0.251354 -0.082021,0 -0.15875,-0.01323 -0.2328333,-0.03704 l -0.034396,-0.03969 -0.042333,-0.3175 -0.2010834,0 0,0.478896 z" />
        </g>
      </g>
      <g
         id="text4236"
         style="font-style:normal;font-variant:normal;font-weight:bold;font-stretch:normal;font-size:1.56688583px;line-height:125%;font-family:sans-serif;-inkscape-font-specification:'sans-serif Bold';letter-spacing:0px;word-spacing:0px;fill:#000000;fill-opacity:1;stroke:none;stroke-width:1px;stroke-linecap:butt;stroke-linejoin:miter;stroke-opacity:1"
         transform="matrix(0.93809397,0,0,1.0457377,0.37467839,-2.7630795)"
         inkscape:export-xdpi="96"
         inkscape:export-ydpi="96">
        <path
           inkscape:connector-curvature="0"
           id="path4241"
           d="m 11.602219,92.705627 q -0.0811,0.04208 -0.169083,0.0635 -0.08798,0.02142 -0.18362,0.02142 -0.285375,0 -0.452163,-0.159137 -0.166787,-0.159901 -0.166787,-0.433035 0,-0.273899 0.166787,-0.433036 0.166788,-0.159902 0.452163,-0.159902 0.09563,0 0.18362,0.02142 0.08798,0.02142 0.169083,0.0635 l 0,0.23641 q -0.08186,-0.05585 -0.161433,-0.08186 -0.07957,-0.02601 -0.167552,-0.02601 -0.157607,0 -0.247887,0.100991 -0.09028,0.100991 -0.09028,0.27849 0,0.176733 0.09028,0.277724 0.09028,0.100991 0.247887,0.100991 0.08798,0 0.167552,-0.02601 0.07957,-0.02601 0.161433,-0.08186 l 0,0.23641 z" />
        <path
           inkscape:connector-curvature="0"
           id="path4243"
           d="m 12.672567,91.662057 0,0.241765 q -0.09411,-0.04208 -0.18362,-0.0635 -0.08951,-0.02142 -0.169083,-0.02142 -0.105581,0 -0.156076,0.02907 -0.05049,0.02907 -0.05049,0.09028 0,0.04591 0.03366,0.07192 0.03443,0.02525 0.123943,0.04361 l 0.125474,0.02525 q 0.190505,0.03825 0.270838,0.116292 0.08033,0.07804 0.08033,0.221874 0,0.188975 -0.112467,0.28155 -0.111702,0.09181 -0.341991,0.09181 -0.108642,0 -0.218048,-0.02066 -0.109407,-0.02066 -0.218814,-0.06121 l 0,-0.248652 q 0.109407,0.05815 0.211163,0.08799 0.102521,0.02907 0.197391,0.02907 0.0964,0 0.14766,-0.03213 0.05126,-0.03213 0.05126,-0.09181 0,-0.05356 -0.03519,-0.08263 -0.03443,-0.02907 -0.13848,-0.05203 l -0.113997,-0.02525 q -0.171378,-0.03672 -0.250946,-0.117058 -0.0788,-0.08033 -0.0788,-0.216518 0,-0.170613 0.110172,-0.262422 0.110172,-0.09181 0.316744,-0.09181 0.0941,0 0.193565,0.01454 0.09946,0.01377 0.205807,0.04208 z" />
        <path
           inkscape:connector-curvature="0"
           id="path4245"
           d="m 13.528692,91.818898 q -0.134654,0 -0.208867,0.09946 -0.07421,0.09946 -0.07421,0.28002 0,0.179794 0.07421,0.279254 0.07421,0.09946 0.208867,0.09946 0.13542,0 0.209633,-0.09946 0.07421,-0.09946 0.07421,-0.279254 0,-0.180559 -0.07421,-0.28002 -0.07421,-0.09946 -0.209633,-0.09946 z m 0,-0.213457 q 0.27543,0 0.431506,0.157607 0.156077,0.157606 0.156077,0.435331 0,0.276959 -0.156077,0.434566 -0.156076,0.157606 -0.431506,0.157606 -0.274664,0 -0.431505,-0.157606 -0.156077,-0.157607 -0.156077,-0.434566 0,-0.277725 0.156077,-0.435331 0.156841,-0.157607 0.431505,-0.157607 z" />
        <path
           inkscape:connector-curvature="0"
           id="path4247"
           d="m 14.338148,91.626098 0.294556,0 0,0.684748 q 0,0.14154 0.0459,0.202746 0.04667,0.06044 0.151486,0.06044 0.105581,0 0.151486,-0.06044 0.04667,-0.06121 0.04667,-0.202746 l 0,-0.684748 0.294556,0 0,0.684748 q 0,0.24253 -0.121648,0.361118 -0.121648,0.118587 -0.371064,0.118587 -0.248651,0 -0.370299,-0.118587 -0.121648,-0.118588 -0.121648,-0.361118 l 0,-0.684748 z" />
        <path
           inkscape:connector-curvature="0"
           id="path4249"
           d="m 15.611243,91.626098 0.328985,0 0.415439,0.783443 0,-0.783443 0.279254,0 0,1.142266 -0.328985,0 -0.415439,-0.783443 0,0.783443 -0.279254,0 0,-1.142266 z" />
        <path
           inkscape:connector-curvature="0"
           id="path4251"
           d="m 17.218678,91.848737 0,0.696988 0.105581,0 q 0.180559,0 0.27543,-0.08951 0.09563,-0.08951 0.09563,-0.260128 0,-0.169848 -0.09487,-0.258597 -0.09487,-0.08875 -0.276195,-0.08875 l -0.105581,0 z m -0.294556,-0.222639 0.310623,0 q 0.260127,0 0.387131,0.03749 0.127768,0.03672 0.218813,0.125473 0.08033,0.07727 0.119353,0.178264 0.03902,0.100991 0.03902,0.228759 0,0.129299 -0.03902,0.231055 -0.03902,0.100991 -0.119353,0.178264 -0.09181,0.08875 -0.220343,0.126238 -0.128534,0.03672 -0.385601,0.03672 l -0.310623,0 0,-1.142266 z" />
      </g>
      <g
         style="font-style:normal;font-variant:normal;font-weight:bold;font-stretch:normal;font-size:2.64583349px;line-height:125%;font-family:sans-serif;-inkscape-font-specification:'sans-serif Bold';letter-spacing:0px;word-spacing:0px;fill:#ffffff;fill-opacity:1;stroke:none;stroke-width:1px;stroke-linecap:butt;stroke-linejoin:miter;stroke-opacity:1"
         id="text3437">
        <path
           d="m 7.1088973,5.7948074 q 0.1563212,0 0.2235005,-0.058136 0.068471,-0.058136 0.068471,-0.1912028 0,-0.1317749 -0.068471,-0.188619 -0.067179,-0.056844 -0.2235005,-0.056844 l -0.2092896,0 0,0.4948019 0.2092896,0 z m -0.2092896,0.3436483 0,0.7299296 -0.4973857,0 0,-1.9288229 0.7596436,0 q 0.3811137,0 0.5581055,0.1278991 0.1782837,0.1278992 0.1782837,0.4043681 0,0.1912029 -0.093018,0.3139344 -0.091726,0.1227315 -0.2777608,0.1808675 0.102061,0.023254 0.1821594,0.1059367 0.08139,0.08139 0.1640727,0.2480469 l 0.2700094,0.5477702 -0.5296835,0 L 7.3789066,6.3890864 Q 7.3078515,6.2443924 7.2342126,6.191424 7.1618656,6.1384557 7.040426,6.1384557 l -0.1408183,0 z"
           id="path3494"
           style="" />
        <path
           d="m 8.4382735,4.9395624 1.3422954,0 0,0.375946 -0.8449097,0 0,0.3591513 0.7945252,0 0,0.375946 -0.7945252,0 0,0.4418335 0.8733318,0 0,0.3759461 -1.3707175,0 0,-1.9288229 z"
           id="path3496"
           style="" />
        <path
           d="m 10.016989,4.9395624 0.499969,0 0.511597,1.4236858 0.510305,-1.4236858 0.499969,0 -0.714427,1.9288229 -0.592987,0 -0.714426,-1.9288229 z"
           id="path3498"
           style="" />
        <path
           d="m 12.293336,4.9395624 1.342295,0 0,0.375946 -0.84491,0 0,0.3591513 0.794526,0 0,0.375946 -0.794526,0 0,0.4418335 0.873332,0 0,0.3759461 -1.370717,0 0,-1.9288229 z"
           id="path3500"
           style="" />
        <path
           d="m 14.808686,5.7948074 q 0.156322,0 0.223501,-0.058136 0.06847,-0.058136 0.06847,-0.1912028 0,-0.1317749 -0.06847,-0.188619 -0.06718,-0.056844 -0.223501,-0.056844 l -0.209289,0 0,0.4948019 0.209289,0 z m -0.209289,0.3436483 0,0.7299296 -0.497386,0 0,-1.9288229 0.759644,0 q 0.381113,0 0.558105,0.1278991 0.178284,0.1278992 0.178284,0.4043681 0,0.1912029 -0.09302,0.3139344 -0.09173,0.1227315 -0.277761,0.1808675 0.102061,0.023254 0.18216,0.1059367 0.08139,0.08139 0.164073,0.2480469 l 0.270009,0.5477702 -0.529684,0 -0.235127,-0.4792989 q -0.07106,-0.144694 -0.144694,-0.1976624 -0.07235,-0.052968 -0.193787,-0.052968 l -0.140818,0 z"
           id="path3502"
           style="" />
        <path
           d="m 16.910626,5.6862869 q 0.117563,0 0.178283,-0.051677 0.06072,-0.051676 0.06072,-0.1524455 0,-0.099477 -0.06072,-0.1511535 -0.06072,-0.052968 -0.178283,-0.052968 l -0.275177,0 0,0.4082439 0.275177,0 z m 0.01679,0.8436178 q 0.149862,0 0.224793,-0.063304 0.07622,-0.063304 0.07622,-0.1912028 0,-0.1253153 -0.07493,-0.1873271 -0.07493,-0.063304 -0.226085,-0.063304 l -0.291971,0 0,0.5051372 0.291971,0 z m 0.462504,-0.6937562 q 0.160197,0.046509 0.248047,0.1718242 0.08785,0.1253153 0.08785,0.3074748 0,0.2790527 -0.188619,0.4159953 -0.188619,0.1369425 -0.573608,0.1369425 l -0.825531,0 0,-1.9288229 0.746724,0 q 0.401785,0 0.58136,0.1214396 0.180868,0.1214396 0.180868,0.3888652 0,0.1408182 -0.06589,0.2402954 -0.06589,0.098185 -0.191203,0.1459859 z"
           id="path3504"
           style="" />
      </g>
      <flowRoot
         xml:space="preserve"
         id="flowRoot3447"
         style="fill:black;stroke:none;stroke-opacity:1;stroke-width:1px;stroke-linejoin:miter;stroke-linecap:butt;fill-opacity:1;font-family:sans-serif;font-style:normal;font-weight:normal;font-size:10px;line-height:125%;letter-spacing:0px;word-spacing:0px"><flowRegion
           id="flowRegion3449"><rect
             id="rect3451"
             width="64"
             height="54"
             x="118"
             y="14" /></flowRegion><flowPara
           id="flowPara3453" /></flowRoot>      <g
         style="font-style:normal;font-variant:normal;font-weight:bold;font-stretch:normal;font-size:2.64583349px;line-height:125%;font-family:sans-serif;-inkscape-font-specification:'sans-serif Bold';letter-spacing:0px;word-spacing:0px;fill:#ffffff;fill-opacity:1;stroke:none;stroke-width:1px;stroke-linecap:butt;stroke-linejoin:miter;stroke-opacity:1"
         id="text3455"
         transform="translate(0,1.0583333)">
        <path
           d="m 7.4997004,9.6808753 0.4973857,0 0,1.9288227 -0.4973857,0 0,-1.9288227 z"
           id="path3481"
           inkscape:connector-curvature="0" />
        <path
           d="m 9.9207414,10.728615 0,0.881083 -0.4650879,0 0,-0.143402 0,-0.530975 q 0,-0.187327 -0.00904,-0.258382 -0.00775,-0.07106 -0.028422,-0.104645 -0.02713,-0.04522 -0.073639,-0.06976 -0.046509,-0.02584 -0.1059367,-0.02584 -0.144694,0 -0.2273763,0.112397 -0.082682,0.111104 -0.082682,0.308766 l 0,0.711843 -0.4625041,0 0,-1.44694 0.4625041,0 0,0.211873 q 0.1046448,-0.126607 0.2222087,-0.186035 0.1175639,-0.06072 0.2596741,-0.06072 0.2506307,0 0.3798218,0.153737 0.130483,0.153737 0.130483,0.447001 z"
           id="path3483"
           inkscape:connector-curvature="0" />
        <path
           d="m 10.814744,11.400409 0,0.759643 -0.462504,0 0,-1.997294 0.462504,0 0,0.211873 q 0.0956,-0.126607 0.211873,-0.186035 0.116272,-0.06072 0.267426,-0.06072 0.267425,0 0.43925,0.213165 0.171824,0.211873 0.171824,0.546478 0,0.334605 -0.171824,0.54777 -0.171825,0.211874 -0.43925,0.211874 -0.151154,0 -0.267426,-0.05943 -0.116272,-0.06072 -0.211873,-0.187327 z m 0.307475,-0.936636 q -0.14857,0 -0.228669,0.109813 -0.07881,0.10852 -0.07881,0.313934 0,0.205414 0.07881,0.315226 0.0801,0.108521 0.228669,0.108521 0.148569,0 0.226084,-0.108521 0.07881,-0.10852 0.07881,-0.315226 0,-0.206706 -0.07881,-0.315226 -0.07752,-0.108521 -0.226084,-0.108521 z"
           id="path3485"
           inkscape:connector-curvature="0" />
        <path
           d="m 12.233262,11.046425 0,-0.883667 0.465088,0 0,0.144694 q 0,0.117564 -0.0013,0.295848 -0.0013,0.176992 -0.0013,0.236419 0,0.174408 0.009,0.251923 0.009,0.07622 0.03101,0.111104 0.02842,0.04522 0.07364,0.06976 0.04651,0.02455 0.105937,0.02455 0.144694,0 0.227376,-0.111104 0.08268,-0.111105 0.08268,-0.308767 l 0,-0.714427 0.462504,0 0,1.44694 -0.462504,0 0,-0.209289 q -0.104644,0.126607 -0.222208,0.187327 -0.116272,0.05943 -0.257091,0.05943 -0.25063,0 -0.382405,-0.153738 -0.130483,-0.153737 -0.130483,-0.447001 z"
           id="path3487"
           inkscape:connector-curvature="0" />
        <path
           d="m 14.640092,9.7519304 0,0.4108276 0.476715,0 0,0.330729 -0.476715,0 0,0.613658 q 0,0.100769 0.04005,0.136943 0.04005,0.03488 0.158905,0.03488 l 0.237712,0 0,0.330729 -0.396617,0 q -0.273885,0 -0.388865,-0.113688 -0.113688,-0.11498 -0.113688,-0.388865 l 0,-0.613658 -0.22996,0 0,-0.330729 0.22996,0 0,-0.4108276 0.462504,0 z"
           id="path3489"
           inkscape:connector-curvature="0" />
        <path
           d="m 16.531449,10.207975 0,0.3514 q -0.148569,-0.06201 -0.286804,-0.09302 -0.138234,-0.03101 -0.260966,-0.03101 -0.131775,0 -0.19637,0.03359 -0.0633,0.0323 -0.0633,0.100769 0,0.05555 0.0478,0.08527 0.04909,0.02971 0.174408,0.04392 l 0.08139,0.01163 q 0.355276,0.04522 0.478007,0.14857 0.122732,0.103353 0.122732,0.32427 0,0.231252 -0.170533,0.347524 -0.170532,0.116272 -0.509012,0.116272 -0.143403,0 -0.29714,-0.02326 -0.152445,-0.02196 -0.313934,-0.06718 l 0,-0.3514 q 0.138234,0.06718 0.282928,0.100769 0.145986,0.03359 0.295848,0.03359 0.13565,0 0.204122,-0.03746 0.06847,-0.03747 0.06847,-0.111105 0,-0.06201 -0.0478,-0.09173 -0.04651,-0.031 -0.187327,-0.0478 l -0.08139,-0.01034 q -0.308767,-0.03876 -0.43279,-0.143403 -0.124024,-0.104644 -0.124024,-0.31781 0,-0.22996 0.157613,-0.341064 0.157614,-0.111104 0.483175,-0.111104 0.127899,0 0.268718,0.01938 0.140818,0.01938 0.306182,0.06072 z"
           id="path3491"
           inkscape:connector-curvature="0" />
      </g>
      <g
         style="font-style:normal;font-weight:normal;font-size:2.64583349px;line-height:125%;font-family:sans-serif;letter-spacing:0px;word-spacing:0px;fill:#ffffff;fill-opacity:1;stroke:none;stroke-width:1px;stroke-linecap:butt;stroke-linejoin:miter;stroke-opacity:1"
         id="text3436"
         transform="translate(0.2299185,0.52916669)">
        <path
           d="m 15.246169,22.632798 q 0.08397,0.02842 0.162781,0.12144 0.0801,0.09302 0.160197,0.255798 l 0.264842,0.5271 -0.280345,0 -0.246755,-0.494802 q -0.0956,-0.193786 -0.186035,-0.25709 -0.08914,-0.0633 -0.244171,-0.0633 l -0.284221,0 0,0.815196 -0.260966,0 0,-1.928823 0.589112,0 q 0.330729,0 0.49351,0.138235 0.16278,0.138234 0.16278,0.417287 0,0.182159 -0.08527,0.302307 -0.08397,0.120148 -0.245463,0.166656 z m -0.653707,-0.810028 0,0.684713 0.328146,0 q 0.188619,0 0.28422,-0.08656 0.09689,-0.08785 0.09689,-0.25709 0,-0.169241 -0.09689,-0.254507 -0.0956,-0.08656 -0.28422,-0.08656 l -0.328146,0 z"
           id="path3470"
           inkscape:connector-curvature="0" />
        <path
           d="m 16.160842,22.090196 0.237712,0 0,1.44694 -0.237712,0 0,-1.44694 z m 0,-0.563273 0.237712,0 0,0.301015 -0.237712,0 0,-0.301015 z"
           id="path3472"
           inkscape:connector-curvature="0" />
        <path
           d="m 17.846786,22.796871 q 0,-0.258382 -0.107229,-0.400492 -0.105936,-0.14211 -0.298431,-0.14211 -0.191203,0 -0.298432,0.14211 -0.105936,0.14211 -0.105936,0.400492 0,0.25709 0.105936,0.399201 0.107229,0.14211 0.298432,0.14211 0.192495,0 0.298431,-0.14211 0.107229,-0.142111 0.107229,-0.399201 z m 0.237711,0.560689 q 0,0.369487 -0.164072,0.549063 -0.164073,0.180867 -0.502554,0.180867 -0.125315,0 -0.236419,-0.01938 -0.111105,-0.01809 -0.215749,-0.05684 l 0,-0.231252 q 0.104644,0.05684 0.206705,0.08398 0.102061,0.02713 0.207998,0.02713 0.233836,0 0.350108,-0.122732 0.116272,-0.121439 0.116272,-0.368194 l 0,-0.117564 q -0.07364,0.127899 -0.188619,0.191202 -0.11498,0.0633 -0.275177,0.0633 -0.266134,0 -0.428915,-0.20283 -0.16278,-0.20283 -0.16278,-0.537435 0,-0.335897 0.16278,-0.538727 0.162781,-0.20283 0.428915,-0.20283 0.160197,0 0.275177,0.0633 0.11498,0.0633 0.188619,0.191203 l 0,-0.219625 0.237711,0 0,1.267364 z"
           id="path3474"
           inkscape:connector-curvature="0" />
        <path
           d="m 19.776901,22.663804 0,0.873332 -0.237712,0 0,-0.86558 q 0,-0.205414 -0.0801,-0.307475 -0.0801,-0.102061 -0.240296,-0.102061 -0.192495,0 -0.303599,0.122732 -0.111104,0.122731 -0.111104,0.334604 l 0,0.81778 -0.239004,0 0,-2.010213 0.239004,0 0,0.788065 q 0.08527,-0.130483 0.200246,-0.195078 0.116272,-0.0646 0.267426,-0.0646 0.249338,0 0.377238,0.15503 0.127899,0.153737 0.127899,0.45346 z"
           id="path3476"
           inkscape:connector-curvature="0" />
        <path
           d="m 20.488743,21.679368 0,0.410828 0.489635,0 0,0.184743 -0.489635,0 0,0.785482 q 0,0.176992 0.0478,0.227376 0.04909,0.05038 0.197662,0.05038 l 0.244172,0 0,0.198954 -0.244172,0 q -0.275177,0 -0.379821,-0.102061 -0.104645,-0.103353 -0.104645,-0.374654 l 0,-0.785482 -0.174408,0 0,-0.184743 0.174408,0 0,-0.410828 0.239003,0 z"
           id="path3478"
           inkscape:connector-curvature="0" />
      </g>
      <g
         style="font-style:normal;font-weight:normal;font-size:2.64583349px;line-height:125%;font-family:sans-serif;letter-spacing:0px;word-spacing:0px;fill:#000000;fill-opacity:1;stroke:none;stroke-width:1px;stroke-linecap:butt;stroke-linejoin:miter;stroke-opacity:1"
         id="text3440"
         transform="translate(-0.01469623,-1.0583334)">
        <path
           d="m 5.9091973,29.243763 1.1084596,0 0,0.219625 -0.8474936,0 0,0.568441 0.7648113,0 0,0.219625 -0.7648113,0 0,0.921132 -0.260966,0 0,-1.928823 z"
           id="path3453"
           inkscape:connector-curvature="0" />
        <path
           d="m 8.5162735,30.389688 0,0.116272 -1.0929566,0 q 0.015503,0.245463 0.1472779,0.374655 0.1330668,0.127899 0.3694865,0.127899 0.1369425,0 0.2648417,-0.03359 0.1291911,-0.03359 0.2557984,-0.100769 l 0,0.224793 q -0.1278992,0.05426 -0.2622579,0.08268 -0.1343588,0.02842 -0.2725932,0.02842 -0.3462321,0 -0.5490622,-0.201538 Q 7.17527,30.806976 7.17527,30.463327 q 0,-0.355275 0.1912029,-0.563273 0.1924947,-0.209289 0.5180562,-0.209289 0.2919719,0 0.4612122,0.188619 0.1705322,0.187327 0.1705322,0.510304 z m -0.2377116,-0.06976 q -0.00258,-0.195078 -0.1098124,-0.31135 -0.1059367,-0.116272 -0.2816366,-0.116272 -0.1989542,0 -0.3191019,0.112396 -0.1188558,0.112396 -0.1369426,0.316518 l 0.8474935,-0.0013 z"
           id="path3455"
           inkscape:connector-curvature="0" />
        <path
           d="m 10.144081,30.389688 0,0.116272 -1.0929563,0 q 0.015503,0.245463 0.1472778,0.374655 0.1330668,0.127899 0.3694865,0.127899 0.1369426,0 0.2648418,-0.03359 0.129191,-0.03359 0.2557982,-0.100769 l 0,0.224793 q -0.1278991,0.05426 -0.2622578,0.08268 -0.1343587,0.02842 -0.2725932,0.02842 -0.3462321,0 -0.5490621,-0.201538 -0.2015381,-0.201538 -0.2015381,-0.545187 0,-0.355275 0.1912028,-0.563273 0.1924947,-0.209289 0.5180563,-0.209289 0.2919718,0 0.4612121,0.188619 0.170532,0.187327 0.170532,0.510304 z m -0.2377113,-0.06976 q -0.00258,-0.195078 -0.1098124,-0.31135 -0.1059367,-0.116272 -0.2816366,-0.116272 -0.1989543,0 -0.319102,0.112396 -0.1188558,0.112396 -0.1369426,0.316518 l 0.8474936,-0.0013 z"
           id="path3457"
           inkscape:connector-curvature="0" />
        <path
           d="m 11.486377,29.945271 0,-0.782898 0.237711,0 0,2.010213 -0.237711,0 0,-0.217041 q -0.07493,0.129192 -0.189911,0.192495 -0.113688,0.06201 -0.273885,0.06201 -0.262258,0 -0.427623,-0.20929 -0.164072,-0.209289 -0.164072,-0.550354 0,-0.341064 0.164072,-0.550354 0.165365,-0.209289 0.427623,-0.209289 0.160197,0 0.273885,0.0633 0.11498,0.06201 0.189911,0.191203 z m -0.810028,0.505137 q 0,0.262258 0.107228,0.41212 0.108521,0.14857 0.29714,0.14857 0.188619,0 0.297139,-0.14857 0.108521,-0.149862 0.108521,-0.41212 0,-0.262258 -0.108521,-0.410827 -0.10852,-0.149862 -0.297139,-0.149862 -0.188619,0 -0.29714,0.149862 -0.107228,0.148569 -0.107228,0.410827 z"
           id="path3459"
           inkscape:connector-curvature="0" />
        <path
           d="m 13.252419,30.450408 q 0,-0.262258 -0.108521,-0.410827 -0.107228,-0.149862 -0.295847,-0.149862 -0.188619,0 -0.29714,0.149862 -0.107228,0.148569 -0.107228,0.410827 0,0.262258 0.107228,0.41212 0.108521,0.14857 0.29714,0.14857 0.188619,0 0.295847,-0.14857 0.108521,-0.149862 0.108521,-0.41212 z m -0.808736,-0.505137 q 0.07493,-0.129191 0.188619,-0.191203 0.11498,-0.0633 0.273885,-0.0633 0.263549,0 0.427622,0.209289 0.165365,0.20929 0.165365,0.550354 0,0.341065 -0.165365,0.550354 -0.164073,0.20929 -0.427622,0.20929 -0.158905,0 -0.273885,-0.06201 -0.113689,-0.0633 -0.188619,-0.192495 l 0,0.217041 -0.239004,0 0,-2.010213 0.239004,0 0,0.782898 z"
           id="path3461"
           inkscape:connector-curvature="0" />
        <path
           d="m 14.550789,30.445241 q -0.288096,0 -0.3992,0.06589 -0.111104,0.06589 -0.111104,0.224793 0,0.126607 0.08268,0.201538 0.08397,0.07364 0.227376,0.07364 0.197663,0 0.316518,-0.139527 0.120148,-0.140818 0.120148,-0.373362 l 0,-0.05297 -0.23642,0 z m 0.474132,-0.09819 0,0.825531 -0.237712,0 0,-0.219624 q -0.08139,0.131775 -0.20283,0.195078 -0.12144,0.06201 -0.297139,0.06201 -0.222209,0 -0.353984,-0.124024 -0.130483,-0.125315 -0.130483,-0.334605 0,-0.244171 0.162781,-0.368194 0.164072,-0.124024 0.488342,-0.124024 l 0.333313,0 0,-0.02325 q 0,-0.164073 -0.10852,-0.253214 -0.107229,-0.09043 -0.302308,-0.09043 -0.124023,0 -0.241587,0.02971 -0.117564,0.02971 -0.226084,0.08914 l 0,-0.219625 q 0.130483,-0.05038 0.253214,-0.07493 0.122732,-0.02584 0.239004,-0.02584 0.313934,0 0.468963,0.16278 0.15503,0.162781 0.15503,0.49351 z"
           id="path3463"
           inkscape:connector-curvature="0" />
        <path
           d="m 16.557127,29.781198 0,0.222209 q -0.100769,-0.05555 -0.20283,-0.08268 -0.100769,-0.02842 -0.204122,-0.02842 -0.231252,0 -0.359152,0.147278 -0.127899,0.145986 -0.127899,0.410827 0,0.264842 0.127899,0.41212 0.1279,0.145986 0.359152,0.145986 0.103353,0 0.204122,-0.02713 0.102061,-0.02842 0.20283,-0.08397 l 0,0.219625 q -0.09948,0.04651 -0.206706,0.06976 -0.105937,0.02326 -0.226085,0.02326 -0.326853,0 -0.519348,-0.205414 -0.192494,-0.205414 -0.192494,-0.55423 0,-0.353983 0.193786,-0.556813 0.195079,-0.20283 0.533559,-0.20283 0.109813,0 0.214458,0.02325 0.104644,0.02196 0.20283,0.06718 z"
           id="path3465"
           inkscape:connector-curvature="0" />
        <path
           d="m 16.964078,29.162373 0.239004,0 0,1.187266 0.709259,-0.623993 0.303599,0 -0.767395,0.676962 0.799693,0.769978 -0.310059,0 -0.735097,-0.706675 0,0.706675 -0.239004,0 0,-2.010213 z"
           id="path3467"
           inkscape:connector-curvature="0" />
      </g>
      <g
         style="font-style:normal;font-weight:normal;font-size:2.64583349px;line-height:125%;font-family:sans-serif;letter-spacing:0px;word-spacing:0px;fill:#000000;fill-opacity:1;stroke:none;stroke-width:1px;stroke-linecap:butt;stroke-linejoin:miter;stroke-opacity:1"
         id="text3444"
         transform="translate(0.08112727,-1.5875001)">
        <path
           d="m 9.583167,45.796502 0,0.275177 q -0.1317749,-0.122731 -0.2816366,-0.183451 -0.1485697,-0.06072 -0.3165181,-0.06072 -0.3307292,0 -0.5064291,0.20283 -0.1756999,0.201538 -0.1756999,0.583944 0,0.381114 0.1756999,0.583944 0.1756999,0.201538 0.5064291,0.201538 0.1679484,0 0.3165181,-0.06072 0.1498617,-0.06072 0.2816366,-0.183451 l 0,0.272593 q -0.1369425,0.09302 -0.2906799,0.139526 -0.1524455,0.04651 -0.3229778,0.04651 -0.4379577,0 -0.6898804,-0.267426 -0.2519226,-0.268717 -0.2519226,-0.732513 0,-0.465088 0.2519226,-0.732514 0.2519227,-0.268717 0.6898804,-0.268717 0.1731161,0 0.3255616,0.04651 0.1537374,0.04522 0.2880961,0.136942 z"
           id="path3442"
           inkscape:connector-curvature="0" />
        <path
           d="m 9.9539454,47.005731 0,-0.875916 0.2377116,0 0,0.866873 q 0,0.205413 0.0801,0.308766 0.0801,0.102061 0.240296,0.102061 0.192495,0 0.303599,-0.122731 0.112396,-0.122732 0.112396,-0.334605 l 0,-0.820364 0.237712,0 0,1.446941 -0.237712,0 0,-0.222209 q -0.08656,0.131775 -0.201538,0.19637 -0.113688,0.0633 -0.264842,0.0633 -0.249338,0 -0.378529,-0.155029 -0.1291916,-0.15503 -0.1291916,-0.453461 z m 0.5981546,-0.910797 0,0 z"
           id="path3444"
           inkscape:connector-curvature="0" />
        <path
           d="m 11.893104,45.718988 0,0.410827 0.489634,0 0,0.184744 -0.489634,0 0,0.785481 q 0,0.176992 0.0478,0.227377 0.04909,0.05038 0.197663,0.05038 l 0.244171,0 0,0.198955 -0.244171,0 q -0.275177,0 -0.379822,-0.102061 Q 11.6541,47.371342 11.6541,47.10004 l 0,-0.785481 -0.174408,0 0,-0.184744 0.174408,0 0,-0.410827 0.239004,0 z"
           id="path3446"
           inkscape:connector-curvature="0" />
        <path
           d="m 13.257361,46.296472 q -0.191202,0 -0.302307,0.149861 -0.111104,0.14857 -0.111104,0.408244 0,0.259674 0.109812,0.409536 0.111105,0.14857 0.303599,0.14857 0.189911,0 0.301016,-0.149862 0.111104,-0.149861 0.111104,-0.408244 0,-0.25709 -0.111104,-0.406952 -0.111105,-0.151153 -0.301016,-0.151153 z m 0,-0.201538 q 0.310059,0 0.487051,0.201538 0.176992,0.201538 0.176992,0.558105 0,0.355276 -0.176992,0.558106 -0.176992,0.201538 -0.487051,0.201538 -0.31135,0 -0.488342,-0.201538 -0.1757,-0.20283 -0.1757,-0.558106 0,-0.356567 0.1757,-0.558105 0.176992,-0.201538 0.488342,-0.201538 z"
           id="path3448"
           inkscape:connector-curvature="0" />
        <path
           d="m 15.938077,45.566542 0,0.197663 -0.227377,0 q -0.127899,0 -0.178283,0.05168 -0.04909,0.05168 -0.04909,0.186035 l 0,0.127899 0.391449,0 0,0.184744 -0.391449,0 0,1.262197 -0.239003,0 0,-1.262197 -0.652415,0 0,1.262197 -0.239004,0 0,-1.262197 -0.227376,0 0,-0.184744 0.227376,0 0,-0.100769 q 0,-0.241587 0.112396,-0.351399 0.112397,-0.111105 0.356568,-0.111105 l 0.224792,0 0,0.197663 -0.227376,0 q -0.127899,0 -0.178284,0.05168 -0.04909,0.05168 -0.04909,0.186035 l 0,0.127899 0.652415,0 0,-0.100769 q 0,-0.241587 0.112396,-0.351399 0.112396,-0.111105 0.356567,-0.111105 l 0.224793,0 z"
           id="path3450"
           inkscape:connector-curvature="0" />
      </g>
      <g
         style="font-style:normal;font-weight:normal;font-size:2.64583349px;line-height:125%;font-family:sans-serif;letter-spacing:0px;word-spacing:0px;fill:#000000;fill-opacity:1;stroke:none;stroke-width:1px;stroke-linecap:butt;stroke-linejoin:miter;stroke-opacity:1"
         id="text3417"
         transform="translate(0.05984987,-2.1166668)">
        <path
           d="m 7.7395761,62.811484 0,0.706675 0.4185791,0 q 0.2105815,0 0.3113505,-0.08656 0.102061,-0.08785 0.102061,-0.267425 0,-0.180868 -0.102061,-0.266134 -0.100769,-0.08656 -0.3113505,-0.08656 l -0.4185791,0 z m 0,-0.793233 0,0.58136 0.3862813,0 q 0.1912028,0 0.2842204,-0.07106 0.094309,-0.07235 0.094309,-0.219624 0,-0.145986 -0.094309,-0.218333 -0.093018,-0.07235 -0.2842204,-0.07235 l -0.3862813,0 z m -0.260966,-0.214458 0.666626,0 q 0.2984314,0 0.4599202,0.124024 0.1614889,0.124023 0.1614889,0.352692 0,0.176991 -0.082682,0.281636 -0.082682,0.104645 -0.2428792,0.130483 0.1924947,0.04134 0.2984314,0.173116 0.1072286,0.130483 0.1072286,0.326854 0,0.258382 -0.1756999,0.3992 -0.1756999,0.140818 -0.4999695,0.140818 l -0.6924642,0 0,-1.928823 z"
           id="path3429"
           inkscape:connector-curvature="0" />
        <path
           d="m 9.8841481,63.866975 q -0.100769,0.258382 -0.1963704,0.337189 -0.095601,0.07881 -0.2557984,0.07881 l -0.1899109,0 0,-0.198954 0.1395264,0 q 0.098185,0 0.1524455,-0.04651 0.05426,-0.04651 0.1201477,-0.219624 l 0.042633,-0.108521 -0.5852357,-1.423686 0.2519226,0 0.4521689,1.131714 0.4521692,-1.131714 0.251922,0 -0.63562,1.581299 z"
           id="path3431"
           inkscape:connector-curvature="0" />
        <path
           d="m 11.077874,63.515575 0,0.767395 -0.239004,0 0,-1.997294 0.239004,0 0,0.219625 q 0.07493,-0.129191 0.188619,-0.191203 0.11498,-0.0633 0.273885,-0.0633 0.26355,0 0.427622,0.209289 0.165365,0.20929 0.165365,0.550354 0,0.341065 -0.165365,0.550354 -0.164072,0.20929 -0.427622,0.20929 -0.158905,0 -0.273885,-0.06201 -0.113688,-0.0633 -0.188619,-0.192495 z m 0.808736,-0.505137 q 0,-0.262258 -0.10852,-0.410827 -0.107229,-0.149862 -0.295848,-0.149862 -0.188619,0 -0.29714,0.149862 -0.107228,0.148569 -0.107228,0.410827 0,0.262258 0.107228,0.41212 0.108521,0.14857 0.29714,0.14857 0.188619,0 0.295848,-0.14857 0.10852,-0.149862 0.10852,-0.41212 z"
           id="path3433"
           inkscape:connector-curvature="0" />
        <path
           d="m 13.18498,63.005271 q -0.288096,0 -0.3992,0.06589 -0.111104,0.06589 -0.111104,0.224793 0,0.126607 0.08268,0.201538 0.08397,0.07364 0.227376,0.07364 0.197663,0 0.316518,-0.139527 0.120148,-0.140818 0.120148,-0.373362 l 0,-0.05297 -0.23642,0 z m 0.474132,-0.09819 0,0.825531 -0.237712,0 0,-0.219624 q -0.08139,0.131774 -0.20283,0.195078 -0.121439,0.06201 -0.297139,0.06201 -0.222209,0 -0.353984,-0.124024 -0.130483,-0.125315 -0.130483,-0.334605 0,-0.244171 0.162781,-0.368194 0.164072,-0.124024 0.488342,-0.124024 l 0.333313,0 0,-0.02325 q 0,-0.164073 -0.10852,-0.253215 -0.107229,-0.09043 -0.302308,-0.09043 -0.124023,0 -0.241587,0.02971 -0.117564,0.02971 -0.226084,0.08914 l 0,-0.219625 q 0.130483,-0.05039 0.253214,-0.07493 0.122732,-0.02584 0.239004,-0.02584 0.313934,0 0.468963,0.16278 0.15503,0.162781 0.15503,0.49351 z"
           id="path3435"
           inkscape:connector-curvature="0" />
        <path
           d="m 15.072462,62.328309 0,0.224793 q -0.100769,-0.05168 -0.209289,-0.07752 -0.108521,-0.02584 -0.224793,-0.02584 -0.176992,0 -0.266133,0.05426 -0.08785,0.05426 -0.08785,0.162781 0,0.08268 0.0633,0.130483 0.0633,0.04651 0.254507,0.08914 l 0.08139,0.01809 q 0.253215,0.05426 0.359151,0.153737 0.107229,0.09819 0.107229,0.275177 0,0.201538 -0.160197,0.319102 -0.158905,0.117564 -0.437958,0.117564 -0.116272,0 -0.242879,-0.02325 -0.125315,-0.02196 -0.264842,-0.06718 l 0,-0.245463 q 0.131775,0.06847 0.259674,0.103353 0.1279,0.03359 0.253215,0.03359 0.167948,0 0.258382,-0.05685 0.09043,-0.05814 0.09043,-0.16278 0,-0.09689 -0.06589,-0.14857 -0.0646,-0.05168 -0.285512,-0.09948 l -0.08268,-0.01938 q -0.220917,-0.04651 -0.319102,-0.14211 -0.09818,-0.09689 -0.09818,-0.264842 0,-0.204122 0.144694,-0.315226 0.144694,-0.111104 0.410827,-0.111104 0.131775,0 0.248047,0.01938 0.116272,0.01938 0.214457,0.05814 z"
           id="path3437"
           inkscape:connector-curvature="0" />
        <path
           d="m 16.452223,62.328309 0,0.224793 q -0.100769,-0.05168 -0.20929,-0.07752 -0.108521,-0.02584 -0.224792,-0.02584 -0.176992,0 -0.266134,0.05426 -0.08785,0.05426 -0.08785,0.162781 0,0.08268 0.0633,0.130483 0.0633,0.04651 0.254506,0.08914 l 0.08139,0.01809 q 0.253215,0.05426 0.359152,0.153737 0.107228,0.09819 0.107228,0.275177 0,0.201538 -0.160197,0.319102 -0.158905,0.117564 -0.437958,0.117564 -0.116271,0 -0.242879,-0.02325 -0.125315,-0.02196 -0.264841,-0.06718 l 0,-0.245463 q 0.131774,0.06847 0.259674,0.103353 0.127899,0.03359 0.253214,0.03359 0.167949,0 0.258382,-0.05685 0.09043,-0.05814 0.09043,-0.16278 0,-0.09689 -0.06589,-0.14857 -0.0646,-0.05168 -0.285513,-0.09948 l -0.08268,-0.01938 q -0.220917,-0.04651 -0.319102,-0.14211 -0.09819,-0.09689 -0.09819,-0.264842 0,-0.204122 0.144694,-0.315226 0.144694,-0.111104 0.410827,-0.111104 0.131775,0 0.248047,0.01938 0.116272,0.01938 0.214458,0.05814 z"
           id="path3439"
           inkscape:connector-curvature="0" />
      </g>
      <g
         style="font-style:normal;font-variant:normal;font-weight:bold;font-stretch:normal;font-size:2.64583349px;line-height:125%;font-family:sans-serif;-inkscape-font-specification:'sans-serif Bold';letter-spacing:0px;word-spacing:0px;fill:#ffffff;fill-opacity:1;stroke:none;stroke-width:1px;stroke-linecap:butt;stroke-linejoin:miter;stroke-opacity:1"
         id="text3421"
         transform="translate(0,0.26458324)">
        <path
           d="m 7.1728469,74.829356 q -0.2273764,0 -0.3526917,0.167948 -0.1253154,0.167949 -0.1253154,0.47284 0,0.303599 0.1253154,0.471547 0.1253153,0.167948 0.3526917,0.167948 0.2286682,0 0.3539835,-0.167948 0.1253154,-0.167948 0.1253154,-0.471547 0,-0.304891 -0.1253154,-0.47284 -0.1253153,-0.167948 -0.3539835,-0.167948 z m 0,-0.360443 q 0.4650879,0 0.7286377,0.266133 0.2635498,0.266134 0.2635498,0.735098 0,0.467671 -0.2635498,0.733805 -0.2635498,0.266134 -0.7286377,0.266134 -0.463796,0 -0.7286378,-0.266134 -0.2635498,-0.266134 -0.2635498,-0.733805 0,-0.468964 0.2635498,-0.735098 0.2648418,-0.266133 0.7286378,-0.266133 z"
           id="path3414"
           inkscape:connector-curvature="0" />
        <path
           d="m 8.5035152,75.869344 0,-0.883667 0.4650879,0 0,0.144694 q 0,0.117564 -0.00129,0.295848 -0.00129,0.176991 -0.00129,0.236419 0,0.174408 0.00904,0.251923 0.00904,0.07622 0.031006,0.111104 0.028422,0.04522 0.073639,0.06976 0.046509,0.02455 0.1059367,0.02455 0.144694,0 0.2273763,-0.111105 0.082682,-0.111104 0.082682,-0.308766 l 0,-0.714427 0.4625041,0 0,1.44694 -0.4625041,0 0,-0.209289 q -0.1046447,0.126607 -0.2222086,0.187327 -0.116272,0.05943 -0.2570903,0.05943 -0.2506307,0 -0.3824056,-0.153738 -0.130483,-0.153737 -0.130483,-0.447001 z"
           id="path3416"
           inkscape:connector-curvature="0" />
        <path
           d="m 10.910345,74.574849 0,0.410828 0.476716,0 0,0.330729 -0.476716,0 0,0.613658 q 0,0.100769 0.04005,0.136942 0.04005,0.03488 0.158905,0.03488 l 0.237711,0 0,0.330729 -0.396616,0 q -0.273885,0 -0.388865,-0.113688 -0.113689,-0.11498 -0.113689,-0.388865 l 0,-0.613658 -0.22996,0 0,-0.330729 0.22996,0 0,-0.410828 0.462504,0 z"
           id="path3418"
           inkscape:connector-curvature="0" />
        <path
           d="m 12.133785,76.223328 0,0.759643 -0.462504,0 0,-1.997294 0.462504,0 0,0.211873 q 0.0956,-0.126607 0.211873,-0.186035 0.116272,-0.06072 0.267426,-0.06072 0.267425,0 0.439249,0.213166 0.171824,0.211873 0.171824,0.546478 0,0.334605 -0.171824,0.54777 -0.171824,0.211874 -0.439249,0.211874 -0.151154,0 -0.267426,-0.05943 -0.116272,-0.06072 -0.211873,-0.187327 z m 0.307474,-0.936636 q -0.148569,0 -0.228668,0.109813 -0.07881,0.10852 -0.07881,0.313934 0,0.205414 0.07881,0.315226 0.0801,0.108521 0.228668,0.108521 0.14857,0 0.226085,-0.108521 0.07881,-0.10852 0.07881,-0.315226 0,-0.206706 -0.07881,-0.315226 -0.07752,-0.108521 -0.226085,-0.108521 z"
           id="path3420"
           inkscape:connector-curvature="0" />
        <path
           d="m 13.552303,75.869344 0,-0.883667 0.465088,0 0,0.144694 q 0,0.117564 -0.0013,0.295848 -0.0013,0.176991 -0.0013,0.236419 0,0.174408 0.009,0.251923 0.009,0.07622 0.03101,0.111104 0.02842,0.04522 0.07364,0.06976 0.04651,0.02455 0.105937,0.02455 0.144694,0 0.227376,-0.111105 0.08268,-0.111104 0.08268,-0.308766 l 0,-0.714427 0.462504,0 0,1.44694 -0.462504,0 0,-0.209289 q -0.104645,0.126607 -0.222209,0.187327 -0.116272,0.05943 -0.25709,0.05943 -0.250631,0 -0.382406,-0.153738 -0.130483,-0.153737 -0.130483,-0.447001 z"
           id="path3422"
           inkscape:connector-curvature="0" />
        <path
           d="m 15.959133,74.574849 0,0.410828 0.476715,0 0,0.330729 -0.476715,0 0,0.613658 q 0,0.100769 0.04005,0.136942 0.04005,0.03488 0.158905,0.03488 l 0.237711,0 0,0.330729 -0.396616,0 q -0.273885,0 -0.388865,-0.113688 -0.113689,-0.11498 -0.113689,-0.388865 l 0,-0.613658 -0.22996,0 0,-0.330729 0.22996,0 0,-0.410828 0.462505,0 z"
           id="path3424"
           inkscape:connector-curvature="0" />
        <path
           d="m 17.850491,75.030894 0,0.3514 q -0.14857,-0.06201 -0.286805,-0.09302 -0.138234,-0.03101 -0.260966,-0.03101 -0.131774,0 -0.19637,0.03359 -0.0633,0.0323 -0.0633,0.100769 0,0.05555 0.0478,0.08527 0.04909,0.02971 0.174408,0.04393 l 0.08139,0.01163 q 0.355276,0.04522 0.478007,0.14857 0.122732,0.103353 0.122732,0.32427 0,0.231252 -0.170532,0.347524 -0.170533,0.116272 -0.509013,0.116272 -0.143402,0 -0.29714,-0.02326 -0.152445,-0.02196 -0.313934,-0.06718 l 0,-0.3514 q 0.138234,0.06718 0.282928,0.100769 0.145986,0.03359 0.295848,0.03359 0.135651,0 0.204122,-0.03747 0.06847,-0.03746 0.06847,-0.111104 0,-0.06201 -0.0478,-0.09173 -0.04651,-0.03101 -0.187328,-0.0478 l -0.08139,-0.01034 q -0.308767,-0.03876 -0.43279,-0.143402 -0.124023,-0.104644 -0.124023,-0.31781 0,-0.22996 0.157613,-0.341064 0.157613,-0.111105 0.483174,-0.111105 0.127899,0 0.268718,0.01938 0.140818,0.01938 0.306183,0.06072 z"
           id="path3426"
           inkscape:connector-curvature="0" />
      </g>
      <g
         id="text955-1-2"
         style="font-style:normal;font-variant:normal;font-weight:normal;font-stretch:normal;font-size:2.82222223px;line-height:1.25;font-family:Arial;-inkscape-font-specification:'Arial, Normal';text-align:start;letter-spacing:0px;word-spacing:0px;writing-mode:lr-tb;text-anchor:start;display:inline;fill:#ffffff;fill-opacity:1;stroke:none;stroke-width:0.26458335"
         aria-label="Left"
         transform="matrix(0.98459302,0,0,0.99635099,0.44690853,-3.6764755)"
         inkscape:export-xdpi="96"
         inkscape:export-ydpi="96">
        <path
           id="path918-2-9"
           d="m 3.6462895,92.074982 0,-2.020204 0.2673394,0 0,1.781803 0.9949436,0 0,0.238401 z"
           inkscape:connector-curvature="0" />
        <path
           id="path920-7-1"
           d="m 6.1984162,91.603693 0.2563151,0.03169 q -0.060634,0.22462 -0.2246202,0.348643 -0.1639866,0.124024 -0.4189236,0.124024 -0.3210829,0 -0.5098742,-0.19706 -0.1874132,-0.198437 -0.1874132,-0.555349 0,-0.369314 0.1901693,-0.573264 0.1901693,-0.20395 0.4933377,-0.20395 0.2935221,0 0.4795573,0.199816 0.1860351,0.199815 0.1860351,0.562239 0,0.02205 -0.00138,0.06615 l -1.0914042,0 q 0.01378,0.241157 0.1364257,0.369314 0.1226454,0.128158 0.3059245,0.128158 0.1364258,0 0.2328885,-0.07166 0.096463,-0.07166 0.1529622,-0.228754 z m -0.8144206,-0.401009 0.8171767,0 Q 6.1846363,91.018026 6.1074653,90.925698 5.988954,90.782382 5.8001628,90.782382 q -0.1708768,0 -0.28801,0.114377 -0.1157552,0.114377 -0.1281576,0.305925 z"
           inkscape:connector-curvature="0" />
        <path
           id="path922-0-2"
           d="m 6.8268016,92.074982 0,-1.270552 -0.2191081,0 0,-0.192925 0.2191081,0 0,-0.155718 q 0,-0.14745 0.026183,-0.219108 0.035829,-0.09646 0.1254015,-0.155719 0.09095,-0.06063 0.253559,-0.06063 0.1047309,0 0.2315104,0.0248 l -0.037207,0.216352 q -0.07717,-0.01378 -0.1460721,-0.01378 -0.1129991,0 -0.1598524,0.04823 -0.046853,0.04823 -0.046853,0.180523 l 0,0.135048 0.2852533,0 0,0.192927 -0.2852539,0 0,1.270552 z"
           inkscape:connector-curvature="0" />
        <path
           id="path924-9-7"
           d="m 8.0918405,91.853118 0.035829,0.219108 q -0.1047309,0.02205 -0.1874132,0.02205 -0.1350477,0 -0.2094618,-0.04272 -0.074414,-0.04272 -0.1047309,-0.111621 -0.030317,-0.07028 -0.030317,-0.293522 l 0,-0.841983 -0.1819009,0 0,-0.192925 0.1819011,0 0,-0.362424 0.2466688,-0.148828 0,0.511252 0.2494249,0 0,0.192925 -0.2494249,0 0,0.855762 q 0,0.106109 0.012402,0.136426 0.01378,0.03032 0.042719,0.04823 0.030317,0.01792 0.085438,0.01792 0.041341,0 0.108865,-0.0096 z"
           inkscape:connector-curvature="0" />
      </g>
      <g
         style="font-style:normal;font-weight:normal;font-size:2.64583349px;line-height:125%;font-family:sans-serif;letter-spacing:0px;word-spacing:0px;display:inline;fill:#ffffff;fill-opacity:1;stroke:none;stroke-width:1px;stroke-linecap:butt;stroke-linejoin:miter;stroke-opacity:1"
         id="text3436-0"
         transform="translate(0.103366,0)">
        <path
           d="m 15.372722,87.191137 q 0.08397,0.02842 0.162781,0.121439 0.0801,0.09302 0.160196,0.255799 l 0.264842,0.527099 -0.280344,0 -0.246755,-0.494802 q -0.0956,-0.193786 -0.186036,-0.25709 -0.08914,-0.0633 -0.244171,-0.0633 l -0.28422,0 0,0.815196 -0.260966,0 0,-1.928823 0.589111,0 q 0.330729,0 0.49351,0.138235 0.162781,0.138234 0.162781,0.417287 0,0.182159 -0.08527,0.302307 -0.08397,0.120148 -0.245463,0.166657 z m -0.653707,-0.810029 0,0.684713 0.328145,0 q 0.188619,0 0.284221,-0.08656 0.09689,-0.08785 0.09689,-0.25709 0,-0.16924 -0.09689,-0.254506 -0.0956,-0.08656 -0.284221,-0.08656 l -0.328145,0 z"
           id="path3403"
           inkscape:connector-curvature="0" />
        <path
           d="m 16.287395,86.648534 0.237711,0 0,1.44694 -0.237711,0 0,-1.44694 z m 0,-0.563273 0.237711,0 0,0.301015 -0.237711,0 0,-0.301015 z"
           id="path3405"
           inkscape:connector-curvature="0" />
        <path
           d="m 17.973338,87.355209 q 0,-0.258382 -0.107228,-0.400492 -0.105937,-0.14211 -0.298432,-0.14211 -0.191202,0 -0.298431,0.14211 -0.105937,0.14211 -0.105937,0.400492 0,0.257091 0.105937,0.399201 0.107229,0.14211 0.298431,0.14211 0.192495,0 0.298432,-0.14211 0.107228,-0.14211 0.107228,-0.399201 z m 0.237712,0.56069 q 0,0.369486 -0.164073,0.549062 -0.164072,0.180867 -0.502553,0.180867 -0.125315,0 -0.23642,-0.01938 -0.111104,-0.01809 -0.215749,-0.05684 l 0,-0.231253 q 0.104645,0.05684 0.206706,0.08397 0.102061,0.02713 0.207998,0.02713 0.233835,0 0.350107,-0.122732 0.116272,-0.121439 0.116272,-0.368194 l 0,-0.117564 q -0.07364,0.127899 -0.188619,0.191203 -0.11498,0.0633 -0.275177,0.0633 -0.266133,0 -0.428914,-0.20283 -0.162781,-0.20283 -0.162781,-0.537435 0,-0.335897 0.162781,-0.538727 0.162781,-0.20283 0.428914,-0.20283 0.160197,0 0.275177,0.0633 0.114981,0.0633 0.188619,0.191203 l 0,-0.219625 0.237712,0 0,1.267365 z"
           id="path3407"
           inkscape:connector-curvature="0" />
        <path
           d="m 19.903453,87.222142 0,0.873332 -0.237711,0 0,-0.86558 q 0,-0.205414 -0.0801,-0.307475 -0.0801,-0.102061 -0.240295,-0.102061 -0.192495,0 -0.303599,0.122732 -0.111105,0.122731 -0.111105,0.334605 l 0,0.817779 -0.239003,0 0,-2.010213 0.239003,0 0,0.788066 q 0.08527,-0.130483 0.200247,-0.195079 0.116272,-0.0646 0.267425,-0.0646 0.249339,0 0.377238,0.15503 0.127899,0.153737 0.127899,0.45346 z"
           id="path3409"
           inkscape:connector-curvature="0" />
        <path
           d="m 20.615296,86.237706 0,0.410828 0.489634,0 0,0.184743 -0.489634,0 0,0.785482 q 0,0.176992 0.0478,0.227376 0.04909,0.05038 0.197662,0.05038 l 0.244171,0 0,0.198954 -0.244171,0 q -0.275177,0 -0.379822,-0.102061 -0.104645,-0.103353 -0.104645,-0.374654 l 0,-0.785482 -0.174408,0 0,-0.184743 0.174408,0 0,-0.410828 0.239004,0 z"
           id="path3411"
           inkscape:connector-curvature="0" />
      </g>
    </g>
  </g>
</svg>
